<svg viewBox="0 0 20 20" fill="none" xmlns="http://www.w3.org/2000/svg">
  <path fill-rule="evenodd" clip-rule="evenodd"
        d="M6.668 1.667c.46 0 .833.373.833.833v.833h5V2.5a.833.833 0 1 1 1.667 0v.833h1.667a2.5 2.5 0 0 1 2.5 2.5v10a2.5 2.5 0 0 1-2.5 2.5H4.168a2.5 2.5 0 0 1-2.5-2.5v-10a2.5 2.5 0 0 1 2.5-2.5h1.667V2.5c0-.46.373-.833.833-.833ZM5.835 5H4.168a.833.833 0 0 0-.833.833v10c0 .46.373.834.833.834h11.667c.46 0 .833-.373.833-.834v-10A.833.833 0 0 0 15.835 5h-1.667v.833a.833.833 0 0 1-1.667 0V5h-5v.833a.833.833 0 0 1-1.666 0V5ZM5 9.167c0-.46.373-.834.834-.834h8.333a.833.833 0 0 1 0 1.667H5.835A.833.833 0 0 1 5 9.167Z"
        fill="currentColor"/>
</svg>