<svg viewBox="0 0 20 20" fill="none" xmlns="http://www.w3.org/2000/svg">
  <path fill-rule="evenodd" clip-rule="evenodd"
        d="M11.667 4.167a.833.833 0 1 1 0-1.667h5c.46 0 .833.373.833.833v5a.833.833 0 1 1-1.667 0V5.345l-6.91 6.91a.833.833 0 1 1-1.179-1.178l6.91-6.91h-2.987ZM5 5.833a.833.833 0 0 0-.833.834V15c0 .46.373.833.833.833h8.333c.46 0 .834-.373.834-.833v-3.333a.833.833 0 1 1 1.666 0V15a2.5 2.5 0 0 1-2.5 2.5H5A2.5 2.5 0 0 1 2.5 15V6.667a2.5 2.5 0 0 1 2.5-2.5h3.333a.833.833 0 1 1 0 1.666H5Z"
        fill="currentColor"/>
</svg>