<svg viewBox="0 0 16 16" fill="none" xmlns="http://www.w3.org/2000/svg">
  <path
    d="M5.67 12.667h-.334c-2.667 0-4-.667-4-4V5.333c0-2.666 1.333-4 4-4h5.333c2.667 0 4 1.334 4 4v3.334c0 2.666-1.333 4-4 4h-.333c-.207 0-.407.1-.533.266l-1 1.334c-.44.586-1.16.586-1.6 0l-1-1.334a.753.753 0 0 0-.534-.266Z"
    stroke="currentColor" stroke-width="1.5" stroke-miterlimit="10"
    stroke-linecap="round" stroke-linejoin="round"/>
  <path d="M4.664 5.333h6.667M4.664 8.667h4" stroke="currentColor"
        stroke-width="1.5"
        stroke-linecap="round" stroke-linejoin="round"/>
</svg>