<svg viewBox="0 0 32 32" fill="none" xmlns="http://www.w3.org/2000/svg">
  <path
    d="M8 25v.773c0 .863 1.02 1.32 1.664.748l.302-.268A1 1 0 0 1 10.63 26h9.74a1 1 0 0 1 .664.253l.302.268c.645.573 1.664.115 1.664-.748V25a1 1 0 0 0-1-1H9a1 1 0 0 0-1 1ZM5 16h22l-2.027 5.404A4 4 0 0 1 21.228 24H10.123a4 4 0 0 1-3.88-3.03L5 16Z"
    stroke="currentColor"/>
  <rect x="3" y="13" width="26" height="3" rx="1" stroke="currentColor"/>
  <path
    d="M5 13v-2.5a3 3 0 0 1 3-3h.375A2.625 2.625 0 0 1 11 10.125a.875.875 0 0 1-.875.875H9.75a.75.75 0 0 1-.75-.75.75.75 0 0 0-.75-.75H8a1 1 0 0 0-1 1V13"
    stroke="currentColor"/>
</svg>