<svg width="32" height="32" viewBox="0 0 32 32" fill="none"
     xmlns="http://www.w3.org/2000/svg">
  <path
    d="M4 24V27C4 27.5523 4.44772 28 5 28H27C27.5523 28 28 27.5523 28 27V6C28 5.44772 27.5523 5 27 5H23.5C22.9477 5 22.5 5.44772 22.5 6V8.5C22.5 9.05228 22.0523 9.5 21.5 9.5H19C18.4477 9.5 18 9.94772 18 10.5V13C18 13.5523 17.5523 14 17 14H14.5C13.9477 14 13.5 14.4477 13.5 15V17.5C13.5 18.0523 13.0523 18.5 12.5 18.5H10C9.44772 18.5 9 18.9477 9 19.5V22C9 22.5523 8.55228 23 8 23H5C4.44772 23 4 23.4477 4 24Z"
    stroke="currentColor"/>
</svg>
