<svg width="25" height="24" viewBox="0 0 25 24" fill="none" xmlns="http://www.w3.org/2000/svg">
  <path d="M20.6651 3.35905L2.55202 10.3683C2.54124 10.3724 2.5308 10.3774 2.52077 10.3831C2.37389 10.4663 1.34885 11.0933 2.79422 11.6554L2.80906 11.6609L7.1221 13.0543C7.15501 13.065 7.18985 13.0684 7.2242 13.0642C7.25854 13.06 7.29156 13.0484 7.32094 13.0301L18.0186 6.35564C18.0448 6.33927 18.074 6.32825 18.1045 6.32322C18.2533 6.29861 18.6819 6.25251 18.4108 6.59666C18.1041 6.9873 10.7972 13.5352 9.98626 14.2614C9.9395 14.3034 9.91057 14.3616 9.9054 14.4243L9.55148 18.6432C9.55144 18.6861 9.5614 18.7285 9.58059 18.767C9.59978 18.8054 9.62767 18.8389 9.66203 18.8647C9.7108 18.8954 9.76814 18.9096 9.82561 18.9052C9.88307 18.9009 9.93761 18.8782 9.98118 18.8404L12.5438 16.5501C12.5843 16.514 12.6359 16.4927 12.6901 16.49C12.7443 16.4872 12.7979 16.503 12.8418 16.5349L17.3127 19.7811L17.3271 19.7909C17.4353 19.8577 18.6041 20.5378 18.9417 19.019L22.0277 4.34463C22.032 4.29815 22.0738 3.78719 21.7085 3.48523C21.3249 3.16959 20.7819 3.32897 20.7003 3.34616C20.6883 3.34951 20.6765 3.35382 20.6651 3.35905Z" fill="#009EEB"/>
</svg>
