<svg viewBox="0 0 40 40" fill="none" xmlns="http://www.w3.org/2000/svg">
  <path
    d="M4.5 19.38c0-7.014 0-10.522 2.18-12.7C8.857 4.5 12.365 4.5 19.38 4.5h1.24c7.014 0 10.522 0 12.7 2.18 2.18 2.178 2.18 5.686 2.18 12.7v1.24c0 7.014 0 10.522-2.18 12.7-2.178 2.18-5.686 2.18-12.7 2.18h-1.24c-7.014 0-10.522 0-12.7-2.18-2.18-2.178-2.18-5.686-2.18-12.7v-1.24Z"
    fill="#fff"/>
  <path
    d="M20.928 26.458c-7.06 0-11.088-4.848-11.256-12.916h3.537c.116 5.921 2.723 8.43 4.789 8.947V13.54h3.33v5.108c2.04-.22 4.183-2.547 4.905-5.108h3.33c-.554 3.155-2.878 5.483-4.53 6.44 1.652.775 4.299 2.805 5.305 6.477h-3.666c-.787-2.456-2.749-4.357-5.344-4.616v4.616h-.4Z"
    fill="#00638E"/>
</svg>