<svg viewBox="0 0 32 32" fill="none" xmlns="http://www.w3.org/2000/svg">
  <path
    d="M3.602 15.504c0-5.612 0-8.417 1.743-10.16C7.088 3.6 9.894 3.6 15.505 3.6h.993c5.611 0 8.417 0 10.16 1.743 1.744 1.744 1.744 4.55 1.744 10.161v.992c0 5.612 0 8.418-1.744 10.16C24.915 28.4 22.11 28.4 16.498 28.4h-.992c-5.612 0-8.418 0-10.161-1.743-1.743-1.744-1.743-4.55-1.743-10.16v-.993Z"
    fill="#07F"/>
  <path
    d="M16.74 21.167c-5.65 0-8.871-3.879-9.006-10.334h2.83c.093 4.738 2.179 6.745 3.831 7.158v-7.157h2.665v4.085c1.631-.176 3.345-2.037 3.924-4.085h2.664c-.444 2.523-2.303 4.385-3.625 5.15 1.322.621 3.44 2.245 4.245 5.183h-2.933c-.63-1.966-2.2-3.486-4.275-3.693v3.693h-.32Z"
    fill="#fff"/>
</svg>