<svg viewBox="0 0 25 24" fill="none" xmlns="http://www.w3.org/2000/svg"><path d="M2.734 11.628c0-4.209 0-6.313 1.308-7.62C5.349 2.7 7.454 2.7 11.662 2.7h.744c4.21 0 6.313 0 7.62 1.307 1.308 1.308 1.308 3.412 1.308 7.621v.744c0 4.209 0 6.313-1.307 7.62-1.308 1.308-3.412 1.308-7.62 1.308h-.745c-4.208 0-6.313 0-7.62-1.308-1.308-1.307-1.308-3.411-1.308-7.62v-.744Z" fill="#07F"/><path d="M12.582 15.875c-4.237 0-6.653-2.91-6.754-7.75H7.95c.07 3.553 1.634 5.058 2.874 5.368V8.125h1.998v3.064c1.224-.132 2.51-1.528 2.943-3.064h1.998c-.333 1.893-1.727 3.29-2.718 3.863.991.466 2.579 1.684 3.183 3.887h-2.2c-.472-1.474-1.65-2.614-3.206-2.77v2.77h-.24Z" fill="#fff"/></svg>