<svg viewBox="0 0 20 20" fill="none" xmlns="http://www.w3.org/2000/svg">
  <path fill-rule="evenodd" clip-rule="evenodd"
        d="M9.627 1.755a.833.833 0 0 1 .746 0l6.666 3.333c.283.141.461.43.461.746v8.333a.833.833 0 0 1-.46.745l-6.667 3.334a.833.833 0 0 1-.746 0l-6.666-3.334a.833.833 0 0 1-.461-.745V5.834c0-.316.178-.605.46-.746l6.667-3.333Zm-5.46 5.427 5 2.5v6.47l-5-2.5v-6.47Zm6.666 8.97 5-2.5v-6.47l-5 2.5v6.47ZM10 8.235l4.803-2.401L10 3.432 5.197 5.834 10 8.235Z"
        fill="currentColor"/>
</svg>