<svg viewBox="0 0 102 24" fill="none" xmlns="http://www.w3.org/2000/svg">
  <g clip-path="url(#a)" fill-rule="evenodd" clip-rule="evenodd">
    <path
      d="M27.608 7.616c.898.257.934.879.619 1.452.028.034-.102.214-.159.214-.62.001-1.605-1.071-1.4-1.534 0-.011.238-.279.463-.218 0 0 .113-.08.477.086Z"
      fill="#C83535"/>
    <path
      d="M44.976 11.602c.456.032.902.073 1.358.096.084.01.168-.035.252-.053-.074-.074-.138-.166-.222-.222-.453-.308-.929-.175-1.404-.07-.038.01-.048.157.016.25ZM3.56 11.207c-.14.044-.317.07-.439.161-.609.426-1.218.861-1.818 1.305-.075.055-.122.164-.179.247.13.038.26.112.38.095 1.176-.21 2.223-.75 3.206-1.393.122-.09.21-.439.136-.568-.073-.12-.38-.187-.566-.162-.233.026-.449.17-.72.315Zm39.401 1.708s-.045.466.368.509c.074.028.148.084.213.084.28.012.558.033.828.008.7-.067 1.362-.262 1.933-.67.122-.091.18-.338.182-.513 0-.055-.25-.15-.398-.169-.521-.05-1.09.109-1.562-.272-.037-.028-.13-.047-.167-.02-.895-.026-1.297.348-1.397 1.043Zm-10.51 1.434c-.492-.06-.923-.716-.808-1.129.107-.394.203-.788.235-1.192.041-.431-.125-.552-.48-.362-.487.252-.955.56-1.405.877-.89.635-1.753 1.288-2.652 1.913-.403.29-.812.194-1.2-.094-.444-.335-.458-.785-.389-1.253.02-.165.106-.311.154-.467-.178.099-.365.19-.552.298-.973.551-1.928 1.148-2.938 1.644-.636.306-1.21.08-1.503-.502-.256-.508-.493-1.07-.115-1.645.038-.064.03-.165.049-.238-.084.017-.186.025-.252.07-.45.373-.891.764-1.351 1.117-.46.363-.836.819-1.48.933-.205.034-.384.354-.507.582-.445.795-.853 1.61-1.298 2.403-.852 1.49-2.42 4.291-3.027 5.544a5.906 5.906 0 0 1-.38.666c-.056.082-.195.109-.29.163-.026-.11-.1-.23-.07-.313.628-1.537 1.845-4.645 2.528-5.989.294-.566.69-1.086.984-1.652.54-1.033 1.043-2.085 1.546-3.136.038-.092-.016-.22-.024-.331-.075.045-.16.08-.225.126-.946.643-1.846 1.379-2.976 1.69-.933.257-1.901.303-2.869.23-.4-.032-.79-1.065-.536-1.384.16-.21.421-.18.577.025.13.147.324.241.49.362.058-.192.134-.375.182-.568a.852.852 0 0 0 .003-.266c-.006-.367-.172-.489-.518-.354-.832.341-1.645.728-2.495 1.042-1.69.608-3.39 1.225-5.117 1.76-.924.285-1.884.386-2.829-.146-1.138-.645-1.373-1.428-.618-2.504.34-.484.753-.838 1.331-1.035.44-.143.842-.368 1.244-.594.74-.416 1.502-.316 2.263-.144.567.125.738.75.315 1.142-.92.827-1.96 1.46-3.218 1.66-.317.051-.66-.016-.986.008-.158.008-.299.107-.458.17.101.14.192.406.294.407.8.036 1.619.126 2.401.005 1.054-.155 2.099-.43 3.116-.742 1.251-.374 2.475-.821 3.689-1.287.486-.188.917-.497 1.357-.759.421-.244.94.055.981.57.06.616.11 1.232.178 1.848 0 .027.11.084.148.066 1.328-.65 2.637-1.316 3.984-1.937.448-.207.758-.462.949-.919.085-.21.31-.318.568-.123.185.13.408.206.602.337.277.186.246.525-.026.845-.189.236-.368.483-.538.738-.047.073-.048.183-.077.275.112-.036.233-.035.318-.098.505-.381.994-.808 1.518-1.17.497-.354 1.038-.505 1.64-.169.416.234.544.51.354.95-.143.338-.24.705-.428 1.015-.228.384.024.396.257.342.588-.15 1.176-.3 1.736-.516.71-.268 1.402-.583 2.075-.926.224-.117.404-.363.527-.592.18-.356.451-.473.813-.387.353.095.22.36.125.57-.228.513-.475 1.006-.694 1.51-.047.11-.04.247-.059.366.112-.053.225-.107.328-.18 1.068-.706 2.135-1.412 3.212-2.11.553-.352 1.123-.614 1.811-.58.586.034.984.36 1.062.957.043.304.118.23.315.095.853-.58 1.767-.764 2.759-.368.445.178.46.62.642.952.064.12.063.275.108.414.217.636.504.813 1.193.866 1.367.114 2.7-.048 4.023-.33.252-.052.383-.079.218-.374-.22-.37-.123-.727.14-1.064.396-.529.829-.975 1.573-.94a.522.522 0 0 0 .309-.135c.422-.391.926-.57 1.668-.214.481.235 1.001.377 1.37.83.119.149 2.43-.108 2.898-.061 1.38.412-1.982.594-2.346.646-.102.008-.224.126-.263.227-.296.778-.997 1.092-1.679 1.38-.607.26-1.26.41-1.886.606-.494.152-.798-.209-1.131-.442-.212-.149-.333-.178-.594-.106-.794.194-1.605.342-2.416.436-.661.085-1.34.079-2.01.081-.792.011-1.55-.52-1.822-1.248-.064-.156-.165-.314-.182-.48-.06-.496-.405-.462-.741-.364-1.037.33-1.834.974-2.447 1.868-.066.092-.151.182-.254.292ZM94.358 13.33c-.548.071-1.11.116-1.662.133-.788.03-1.564.06-2.354.076l-1.88.022c-.64-.006-1.28-.012-1.908-.046-.201-.002-.394-.116-.585-.175.197-.079.379-.213.567-.21 1.943-.012 3.874-.022 5.82.007.665.005 1.334.106 2.002.192Z"
      fill="#94A3B8"/>
    <path
      d="M71.138 13.66c-.063-.013-.137-.039-.2-.052.113-.048.163-.035.225-.022a.479.479 0 0 0-.025.074Zm-6.587-.696c-1.162.26-2.716.005-2.555-.835.16-.841 3.422-.6 3.422-.6s.294 1.176-.867 1.435Zm-6.1 3.297c.086.062.21.174.209.26-.013.074-.14.208-.24.22-.6.141-1.213.283-1.826.376-1.126.161-2.238.298-3.364.448-.873-.095-1.634-.176-2.382-.294-.05 0-.12-.444-.033-.517.643-.573 1.273-1.158 1.99-1.643.552-.364 1.191-.617 1.83-.832.401-.132.762.044 1.158.331.831.624 1.763 1.1 2.657 1.65Zm-6.713 1.904c-.349-.052-.573-.116-.785-.167.013-.037.026-.086.038-.086l.662.043c.075.013.136.063.212.088.049.025.111.063.16.088l-.287.034Zm-4.199-6.241c2.262-.22 5.713-.134 5.713-.134.113 0 .658.105.657.191.263.164.404.345-.274 1-.233.226.785.765.747.765-1.813.34-3.346 1.31-4.842 2.292-.766.498-.73.597-.15 1.28.087.099.174.21.222.334.27.606.828.92 1.377.974 1.298.098 2.609.147 3.896.037 1.525-.133 3.051-.427 4.565-.683.438-.07.864-.25.969-.766.104-.516-.193-.753-.616-.954-.634-.302-1.267-.652-1.889-.991a37.205 37.205 0 0 1-1.502-.888c-.137-.088-.222-.26-.333-.397.037-.025.088-.074.125-.085 1.563-.232 3.127-.512 4.702-.657.413-.045.853.35 1.282.455 2.073.509 3.382-.28 3.382-.28s-.006.601 1.297.533c.162-.009 3.722.099 3.897.088.661.006 1.348.025 2.01.019.362-.009.725-.104 1.075-.1.862-.005 1.698.003 2.526-.334.288-.12.75-.128.986.022.373.226.585.141.9-.028.225-.109.525-.106.787-.116.487-.008.974.034 1.449.002.724-.043 1.437-.184 2.15-.201.924-.029 1.847.017 2.772.001.125.002.263-.12.389-.193-.15-.05-.286-.15-.436-.151-.874-.034-1.76-.017-2.634-.038-.2-.014-.386-.127-.574-.116-.574.007-1.15.075-1.724.094-.862.004-1.735-.03-2.597-.025-1.112.014-2.232-.04-3.323.091-1.73.21-5.164.087-7.28.146-1.664-.296.832-1.877-1.198-2.297-.91-.188-2.103.147-3.053.212-.262.01-.825.142-1.313.197-.765.204-.852.122-.972.97-.014.099-.153.245-.253.257-1.564.292-3.127.573-4.703.841-.238.035-.662.043-.723-.069-.123-.235-.132-.592-.043-.85.193-.552.047-.972-.502-1.075-1.346-.222-2.725-.168-4.101-.048-2.343.205-2.84.675-2.84.675ZM98.274 8.46l-2.912 4.746a.122.122 0 0 0 .012.145.142.142 0 0 0 .15.041l5.528-1.738a.126.126 0 0 0 .041-.223l-1.203-.899 2.058-1.373a.129.129 0 0 0 .052-.087.128.128 0 0 0-.03-.097l-.759-.84v-.002a.143.143 0 0 0-.212 0L99.21 9.75l-.697-1.286a.137.137 0 0 0-.119-.07.138.138 0 0 0-.12.065Z"
      fill="#94A3B8"/>
  </g>
  <defs>
    <clipPath id="a">
      <path fill="#fff" d="M0 0h102v24H0z"/>
    </clipPath>
  </defs>
</svg>