<svg viewBox="0 0 56 56" fill="none" xmlns="http://www.w3.org/2000/svg">
  <path
    d="m33.883 20.035-.33.912-1.573-.342-.087-.018a.902.902 0 0 1-.42-.221c-.523-.487-2.302-1.904-5.694-2.398a.257.257 0 0 1-.219-.224 6.81 6.81 0 0 0-.094-.591c-.072-.338-.184-.703-.355-.916 0 0 .605-.968 3.111-1.147 0 0-.813.405-1.138 1.409.501.099.991.225 1.472.375h.001c.47-.167 1.175-.314 2.113-.24 0 0-.625.273-.896.676.8.328 1.564.722 2.288 1.177l.004.002c.614.384 1.197.814 1.748 1.281a.241.241 0 0 1 .069.266ZM24.58 16.995c-.011.984-.248 2.535-1.353 4.182 0 0 .281-3.112-1.839-4.257a3.261 3.261 0 0 0-.784-.299 14.967 14.967 0 0 1 3.518-.417h.102a.348.348 0 0 1 .345.327c.008.135.013.291.01.464Z"
    fill="#00638E"/>
  <path
    d="M31.469 21.726a7.345 7.345 0 0 1-.366 2.036 9.338 9.338 0 0 0-2.799-2.585c-2.06-1.224-3.324-.905-3.77-.712a9.228 9.228 0 0 0 .787-1.645.331.331 0 0 1 .337-.216c1.719.136 3.72.666 5.388 2.126.285.25.44.616.423.996ZM32.331 28.783c.289-1.214.089-2.471-.434-3.639a.874.874 0 0 1-.041-.605c.185-.617.386-1.566.306-2.618 2.995 3.839.169 6.861.169 6.861ZM24.29 15.7c-.439-.003-1.317.005-2.192.092 0 0 .906-1.83 3.958-2.165 0 0-1.022.77-1.4 1.82a.385.385 0 0 1-.365.253ZM19.744 16.672s.597-.482 1.557-1.015a.67.67 0 0 0 .312-.377c.144-.441.526-1.422 1.357-2.498 0 0-1.594.647-2.517 1.41a.393.393 0 0 0-.119.171 13.26 13.26 0 0 0-.59 2.308Z"
    fill="#00638E"/>
  <path
    d="M19.377 17.024c-.262-2.5 0-4.364 0-4.364-1.69 1.547-2.947 4.399-2.947 4.399-.087-.387-.122-1.18-.122-1.18-.89 1.514-1.046 3.691-1.046 3.691-.244-.303-.453-.88-.453-.88a9.809 9.809 0 0 0 .257 4.156.168.168 0 0 0 .223.11 7.571 7.571 0 0 1 1.526-.43.387.387 0 0 0 .291-.227 7.408 7.408 0 0 1 1.243-1.91.474.474 0 0 1 .29-.152c.242-.031.446-.052.595-.064a.6.6 0 0 0 .434-.242c.439-.594.633-.973.633-.973 1.168.071 2.092.612 2.092.612-.766-2.206-3.016-2.547-3.016-2.547v.001Zm-2.871 2.684-.545.743.05-.88s.46-.78 1.003-1.362c-.015.042-.233.62-.315 1.046-.031.164-.095.32-.193.453ZM39.048 40.45c.008-.08.138-1.3-.775-1.807-.633-.353-1.01.174-1.097.315a.504.504 0 0 1-.016.029l-.003.003v.002c-.187.327-.385.646-.596.956l-.002.001s0 .004-.002.005c-.057.103-.831 1.536-.952 2.913-.107 1.195-.491 1.72-1.433 2.59 0 0 .521-.92-.033-1.609-.412-.513-1.014-.27-1.052-.253 0 .002-.002.002-.002.002-.122.093-.247.182-.372.27a2.99 2.99 0 0 0-.476.42c-.34.37-.961 1.078-1.372 1.746-.556.901-.963 1.25-2.017 1.652.039-.028.737-.535.512-1.264-.089-.288-.306-.41-.502-.46a.985.985 0 0 0-.52.019 14.84 14.84 0 0 1-1.186.295s-1.403.4-2.26 1.045c-.805.604-1.286.772-2.36.759 0 0 .81-.217.863-.963.04-.573-.563-.587-.563-.587l.005-.002a14.528 14.528 0 0 1-1.287-.165h.002s-1.36-.087-2.293.19c-.876.259-1.34.247-2.254-.108 0 0 .804.046 1.084-.574.097-.213.05-.378-.031-.493a.55.55 0 0 0-.224-.18 14.87 14.87 0 0 1-1.882-1.047l.015.018s-1.139-.507-2.024-.618c-.828-.104-1.214-.284-1.852-.916.046.027.622.36 1.061-.041a.509.509 0 0 0 .178-.4.6.6 0 0 0-.169-.39c-.46-.495-.889-1.02-1.283-1.574 0 0-.784-.777-1.472-1.14-.645-.34-.905-.607-1.234-1.32 0 0 .436.478.936.275.336-.137.242-.493.232-.53l.008.006a15.243 15.243 0 0 1-1.242-7.111c-.003.045-.003.09-.003.134 0 7.557 6.071 13.682 13.558 13.682s13.051-5.629 13.525-12.75a.189.189 0 0 0-.044-.134c-.708-.855-1.725-1.495-3.174-1.661 0 0 3.268-3.138.48-6.236.026.012.459.233 1.09.497.867.363 2.108.812 3.176.921.326.034.636.036.915-.006 0 0 1.699 3.418.67 8.489v.008c-.06.443-.232 2.059.192 3.495.416 1.41.227 2.183-.443 3.605v-.002Z"
    fill="#00638E"/>
  <path
    d="m37.16 38.987-.003.005v-.002l.003-.003ZM35.409 32.317v.002C34.266 38.353 29.01 42.912 22.7 42.912c-7.148 0-12.941-5.848-12.941-13.06 0-3.442 1.318-6.57 3.474-8.903-1.561 2.134-2.493 4.833-2.493 7.767 0 6.91 5.169 12.512 11.544 12.512 2.82 0 5.404-1.095 7.407-2.914l.006-.007c.893-.822 4.132-5.24.988-7.76 0 0 1.353-.301 2.95.464a6.055 6.055 0 0 1 1.773 1.306Z"
    fill="#00638E"/>
  <path
    d="M13.234 20.949c-1.11 1.172-2.843 3.336-3.815 6.512a16.325 16.325 0 0 0-.709 4.355c-.908-1.747-1.077-3.741-1.077-3.741.249.442.585.819.585.819 1.176-4.425 4.9-7.839 5.016-7.945ZM41.25 32.015c-.178.25-.37.496-.576.737.206-.256.397-.501.576-.737Z"
    fill="#00638E"/>
  <path
    d="M48.337 31.713a2.655 2.655 0 0 0-.538-1.16c-.878-11.45-7.01-20.346-14.94-22.248-1.715-.411-4.912-.831-9.142.686a4.034 4.034 0 0 0-1.97-.54 13.294 13.294 0 0 0-1.65 4.51c.715-.503 1.946-1.214 3.582-1.424 3.402-.433 5.997 1.63 7.165 2.56 2.986 2.374 4.1 5.523 4.51 7.052a.288.288 0 0 1-.223.358l-2.235.43a20.362 20.362 0 0 1 4.079 1.446.281.281 0 0 0 .4-.292l-.215-1.622a.594.594 0 0 1 .106-.425l.237-.331.026-.16c-.36-1.136-1.569-4.45-4.806-6.957-4.345-3.367-8.571-2.944-9.631-2.813 1.419-.296 4.23-.753 7.984.934 3.123 1.404 4.83 3.619 5.802 4.915 4.651 6.195 4.08 13.71 3.796 16.12.206-.256.398-.501.576-.737l.008-.012c2.753-3.672 2.223-5.236 2.223-5.236-.158-.085-.396-.35-.64-.666-.172-2.354-1.113-5.065-2.883-8.24-.531-.953-2.295-3.879-5.73-5.927-4.585-2.735-7.593-2.462-9.24-2.385 1.24-.304 4.368-.975 8.739 1.011 4.15 1.888 6.344 5.29 7.162 6.796 6.548 12.042 1.828 20.669 1.146 22.625 3.41-3.023 5.654-5.583 6.09-6.69.34-.862.212-1.578.212-1.578Z"
    fill="#00638E"/>
  <path
    d="m31.268 26.253-6.158-4.566-8.182 8.256-.004.005c-.064.074-.62.705-1.342 1.354-.618.558-1.358 1.128-2.011 1.37-.043.016-.03.08.015.08h.56-.001 3.488v5.384c.319.168 5.442 2.78 9.35.257 1.712-1.106 2.538-2.779 2.683-3.08.3-.624 1.438-3.003.368-4.304-.305-.37-.714-.563-1.07-.667a.112.112 0 0 1-.05-.186 2.606 2.606 0 0 1 1.288-.743c.363-.084.683-.072.921-.039a.28.28 0 0 0 .3-.169 3.764 3.764 0 0 0 .067-2.65.636.636 0 0 0-.221-.302h-.001Zm-7.17 9.807h-3.279v-3.308h3.279v3.308Z"
    fill="#00638E"/>
  <path d="m15.581 31.302 1.343-1.354c-.064.074-.62.705-1.343 1.354Z"
        fill="#00638E"/>
</svg>