<svg width="115" height="57" viewBox="0 0 115 57" fill="none" xmlns="http://www.w3.org/2000/svg">
  <path d="M34.4484 20.9163L34.1127 21.8306L32.5149 21.4882L32.4262 21.4694C32.2667 21.4353 32.1203 21.3578 31.9996 21.2478C31.4672 20.7596 29.6594 19.3377 26.2115 18.8427C26.0948 18.8262 26.0027 18.7345 25.989 18.6177C25.9718 18.4696 25.9415 18.2531 25.8935 18.0241H25.8923C25.8197 17.6857 25.7065 17.3194 25.5326 17.1058H25.5315V17.1046C25.5315 17.1046 26.1474 16.1339 28.6946 15.955C28.6946 15.955 27.8682 16.3612 27.5383 17.3678C28.0472 17.4675 28.5454 17.594 29.0343 17.745H29.0355C29.5136 17.5775 30.2296 17.4299 31.1829 17.504C31.1829 17.504 30.5481 17.7774 30.2725 18.1825C31.0851 18.5112 31.8618 18.9059 32.5978 19.3634L32.6018 19.3645C33.2263 19.7508 33.8188 20.1814 34.3787 20.6503C34.4559 20.7152 34.4839 20.8223 34.449 20.9169L34.4484 20.9163Z" fill="#00638E"/>
  <path d="M24.9916 17.8663C24.9813 18.8535 24.7406 20.4099 23.6168 22.0619C23.6168 22.0619 23.9027 18.9395 21.7478 17.7905C21.5122 17.6641 21.2486 17.5632 20.9512 17.4909C22.0978 17.2174 23.2954 17.0722 24.5272 17.0722C24.5616 17.0722 24.5959 17.0722 24.6307 17.0722C24.8155 17.0739 24.9693 17.2163 24.9807 17.4003C24.9893 17.5359 24.9945 17.6925 24.9916 17.8663Z" fill="#00638E"/>
  <path d="M31.995 22.6122C31.9704 23.1739 31.8806 23.9133 31.6227 24.6556C30.869 23.6074 29.8681 22.7016 28.7781 22.0619C26.6833 20.8337 25.3994 21.1539 24.9453 21.3475C25.3079 20.7779 25.579 20.1398 25.7454 19.6966C25.798 19.5559 25.9381 19.4693 26.0885 19.4807C27.8356 19.6169 29.8704 20.1484 31.5655 21.6136C31.8549 21.8637 32.0122 22.2317 31.9956 22.6128L31.995 22.6122Z" fill="#00638E"/>
  <path d="M32.8717 29.6926C33.1651 28.4747 32.9615 27.2134 32.4302 26.0422C32.3439 25.8513 32.3279 25.636 32.3885 25.4349C32.5766 24.8163 32.7814 23.8638 32.6996 22.8082C35.7438 26.6597 32.8712 29.6921 32.8712 29.6921L32.8717 29.6926Z" fill="#00638E"/>
  <path d="M24.6982 16.5663C24.2516 16.5635 23.3589 16.5714 22.469 16.6586C22.469 16.6586 23.3909 14.8225 26.4928 14.487C26.4928 14.487 25.4543 15.2595 25.0705 16.3128C25.0145 16.4672 24.8635 16.5674 24.6982 16.5663Z" fill="#00638E"/>
  <path d="M20.0762 17.5416C20.0762 17.5416 20.6835 17.0579 21.6592 16.5236C21.809 16.4415 21.9223 16.3071 21.976 16.1459C22.1224 15.7027 22.5113 14.7189 23.356 13.6393C23.356 13.6393 21.7353 14.2882 20.7974 15.0533C20.7419 15.0983 20.7013 15.1581 20.6767 15.2253C20.5652 15.5341 20.2369 16.4957 20.0768 17.541L20.0762 17.5416Z" fill="#00638E"/>
  <path d="M19.7033 17.8953C19.4374 15.3877 19.7033 13.5163 19.7033 13.5163C17.9848 15.0692 16.7083 17.9301 16.7083 17.9301C16.6191 17.5416 16.5842 16.7469 16.5842 16.7469C15.6801 18.2651 15.5205 20.4497 15.5205 20.4497C15.2723 20.145 15.0601 19.5662 15.0601 19.5662C14.7399 21.5207 15.1608 23.1995 15.3215 23.7362C15.3501 23.8319 15.4547 23.8831 15.5479 23.8461C16.2165 23.5829 16.8004 23.4639 17.0989 23.4149C17.2299 23.3938 17.3414 23.3078 17.3952 23.187C17.8098 22.2539 18.4046 21.5492 18.659 21.2718C18.7357 21.188 18.8398 21.1339 18.953 21.1191C19.1995 21.0872 19.4071 21.0667 19.5581 21.0542C19.7331 21.0399 19.8943 20.9522 19.999 20.812C20.4456 20.2156 20.6424 19.8356 20.6424 19.8356C21.8302 19.9068 22.7698 20.4492 22.7698 20.4492C21.9909 18.2366 19.7033 17.8942 19.7033 17.8942V17.8953ZM16.785 20.5882L16.2308 21.3339L16.2811 20.4503C16.2811 20.4503 16.7489 19.667 17.3019 19.0837C17.2865 19.1264 17.0652 19.7069 16.9817 20.1336C16.9497 20.2976 16.885 20.4537 16.7855 20.5882H16.785Z" fill="#00638E"/>
  <path d="M39.699 41.3993C39.7076 41.3179 39.8397 40.0948 38.9115 39.5855C38.2681 39.2317 37.8844 39.7604 37.7963 39.9017C37.7889 39.9153 37.7837 39.9239 37.7797 39.9301C37.7797 39.9313 37.7786 39.9324 37.7774 39.9341V39.9353C37.587 40.264 37.3851 40.5836 37.1706 40.8946L37.1695 40.8957C37.1695 40.8957 37.1684 40.8997 37.1672 40.9009C37.1095 41.0045 36.322 42.4424 36.199 43.8233C36.0909 45.0224 35.6997 45.5499 34.743 46.4221C34.743 46.4221 35.2725 45.4998 34.7092 44.8077C34.29 44.2927 33.6781 44.5376 33.6404 44.5542C33.6392 44.5553 33.6381 44.5553 33.6381 44.5553C33.5134 44.6487 33.387 44.7387 33.2595 44.8276C33.0833 44.9501 32.9226 45.0914 32.7762 45.248C32.4302 45.6194 31.7989 46.3298 31.3808 47.0003C30.8163 47.9038 30.4023 48.2547 29.3311 48.6569C29.37 48.6296 30.0798 48.1209 29.8516 47.3888C29.7612 47.1 29.5405 46.9781 29.3414 46.928C29.1676 46.8841 28.9846 46.8961 28.8119 46.9462C28.4173 47.0607 28.0152 47.1598 27.6075 47.243C27.6075 47.243 26.1812 47.644 25.3096 48.2912C24.4918 48.8973 24.0028 49.0659 22.9105 49.0523C22.9105 49.0523 23.7335 48.8347 23.7884 48.0867C23.8295 47.5119 23.2153 47.4971 23.2153 47.4971L23.2205 47.4959C22.779 47.4595 22.3426 47.4036 21.9125 47.3296L21.9148 47.3307C21.9148 47.3307 20.5326 47.243 19.5832 47.5204C18.6928 47.7802 18.221 47.7688 17.2928 47.4128C17.2928 47.4128 18.1095 47.4589 18.3943 46.8368C18.4932 46.6221 18.4452 46.4569 18.3628 46.3412C18.3062 46.2615 18.2244 46.2022 18.1352 46.1618C17.4701 45.8564 16.8313 45.5049 16.2222 45.1107L16.2371 45.1284C16.2371 45.1284 15.0796 44.6197 14.18 44.5086C13.3382 44.4038 12.9458 44.2237 12.2973 43.5891C12.3436 43.6165 12.9292 43.9503 13.3759 43.5481C13.5194 43.4188 13.56 43.2741 13.5572 43.1471C13.5538 43.0001 13.4863 42.8622 13.385 42.7551C12.9172 42.2595 12.4815 41.7326 12.0811 41.1766C12.0811 41.1766 11.2845 40.3967 10.5851 40.0321C9.9291 39.6909 9.66431 39.4237 9.32975 38.7076C9.32975 38.7076 9.77354 39.1884 10.282 38.9839C10.6234 38.8466 10.5279 38.4895 10.5176 38.4519L10.5262 38.4593C9.69233 36.5788 9.2291 34.5001 9.2291 32.3125C9.2291 31.9804 9.24054 31.6506 9.26284 31.3242C9.26055 31.3692 9.26055 31.4142 9.26055 31.4592C9.26055 39.0403 15.4313 45.1859 23.042 45.1859C30.6528 45.1859 36.3082 39.5388 36.7898 32.394C36.7932 32.345 36.7778 32.2966 36.7457 32.259C36.0252 31.4016 34.9923 30.7596 33.5185 30.5927C33.5185 30.5927 36.8412 27.4441 34.0064 24.336C34.0327 24.3486 34.473 24.5696 35.1141 24.8345C35.996 25.1991 37.2576 25.6491 38.3436 25.7591C38.6747 25.7927 38.9893 25.7955 39.2729 25.7528C39.2729 25.7528 41 29.1822 39.9552 34.2699C39.9552 34.2722 39.9541 34.275 39.9541 34.2785C39.894 34.7222 39.7184 36.3435 40.1496 37.7842C40.5723 39.1987 40.3807 39.9746 39.6996 41.401L39.699 41.3993Z" fill="#00638E"/>
  <path d="M37.7797 39.9301C37.7786 39.934 37.7774 39.9351 37.7774 39.9351V39.9341C37.7774 39.9341 37.7797 39.9318 37.7797 39.9301Z" fill="#00638E"/>
  <path d="M36 33.2388V33.2411C34.8385 39.2944 29.497 43.8683 23.0826 43.8683C15.8167 43.8683 9.92795 38.0013 9.92795 30.7647C9.92795 27.3125 11.2673 24.1731 13.4588 21.8329C11.8724 23.9743 10.9253 26.6819 10.9253 29.6254C10.9253 36.5594 16.1793 42.1792 22.66 42.1792C25.5258 42.1792 28.1525 41.0809 30.189 39.2557V39.2545L30.1953 39.2483C31.1023 38.4239 34.3947 33.9908 31.1989 31.4632C31.1989 31.4632 32.5749 31.1607 34.198 31.928C34.7836 32.2043 35.4018 32.619 36.0006 33.2388H36Z" fill="#00638E"/>
  <path d="M13.4588 21.8329C12.331 23.0087 10.569 25.1797 9.58081 28.367C9.06039 30.0435 8.89225 31.5543 8.8608 32.7358C7.93719 30.9835 7.76562 28.9822 7.76562 28.9822C8.01897 29.426 8.36039 29.8043 8.36039 29.8043C9.55565 25.3643 13.341 21.9394 13.4588 21.8335L13.4588 21.8329Z" fill="#00638E"/>
  <path d="M41.9374 32.9352C41.7567 33.1864 41.5611 33.4336 41.3518 33.6746C41.5611 33.4183 41.7555 33.1722 41.9374 32.9352Z" fill="#00638E"/>
  <path d="M49.1409 32.6327C49.0409 32.0892 48.7732 31.6933 48.5942 31.4683C47.7021 19.9815 41.4696 11.0559 33.4076 9.14693C31.6645 8.73449 28.4155 8.31351 24.1149 9.83509C23.9056 9.7166 23.6397 9.58786 23.32 9.48645C22.8459 9.33549 22.4232 9.29676 22.1121 9.29277C21.7724 9.8613 21.407 10.5694 21.0902 11.4119C20.7516 12.3114 20.5532 13.1335 20.4353 13.8171C21.1628 13.3135 22.4135 12.6003 24.0766 12.3901C27.5348 11.9554 30.1724 14.0256 31.3602 14.9576C34.3953 17.3405 35.527 20.4999 35.9445 22.0334C35.9891 22.1963 35.8839 22.3616 35.7175 22.3929C34.9603 22.5364 34.2031 22.6806 33.4459 22.8236C34.3575 23.0383 35.3989 23.3482 36.5153 23.8017C36.8927 23.9555 37.2519 24.1139 37.5916 24.2751C37.7969 24.3725 38.0285 24.2061 37.9982 23.9817L37.7803 22.3547C37.7603 22.2038 37.798 22.0517 37.8878 21.9286C37.9616 21.8266 38.0462 21.7098 38.1291 21.5959L38.1549 21.4353C37.7889 20.2965 36.5604 16.9702 33.2703 14.4557C28.853 11.0775 24.557 11.5019 23.4795 11.6335C24.9218 11.3362 27.7802 10.8776 31.5958 12.5706C34.7704 13.9789 36.505 16.2011 37.4932 17.5017C42.2216 23.7174 41.64 31.2575 41.3523 33.6746C41.5616 33.4183 41.7561 33.1722 41.938 32.9352C41.9402 32.9312 41.9431 32.9278 41.9454 32.9238C44.7437 29.2392 44.2055 27.6703 44.2055 27.6703C44.0448 27.5854 43.8029 27.3182 43.5547 27.0021C43.3803 24.6408 42.4235 21.9206 40.6237 18.735C40.0844 17.7791 38.291 14.8431 34.8002 12.7883C30.1392 10.0447 27.0813 10.3182 25.4074 10.3956C26.6678 10.0909 29.8476 9.41752 34.29 11.4102C38.5095 13.3044 40.7393 16.7178 41.5708 18.228C48.2271 30.3096 43.4283 38.9651 42.7357 40.9276C46.2026 37.8953 48.4827 35.3267 48.9265 34.2158C49.2713 33.351 49.1409 32.6327 49.1409 32.6327Z" fill="#00638E"/>
  <path d="M31.7909 27.1542L25.5309 22.574L17.2144 30.857C17.2144 30.857 17.2122 30.8593 17.2104 30.8622C17.1452 30.9356 16.5796 31.5691 15.8459 32.2202C15.218 32.7797 14.4659 33.3516 13.8014 33.5949C13.7579 33.6108 13.7705 33.6746 13.8168 33.6746H14.3864L14.3853 33.6758H17.931V39.0768C18.2547 39.2454 23.4624 41.8665 27.4342 39.3343C29.175 38.2246 30.0151 36.5469 30.1621 36.2444C30.4669 35.6183 31.6244 33.232 30.5361 31.9263C30.2262 31.5543 29.811 31.3618 29.4495 31.2569C29.3672 31.233 29.3391 31.1322 29.3986 31.0707C29.6268 30.836 30.0614 30.4714 30.7077 30.325C31.0766 30.2406 31.402 30.2526 31.6439 30.2862C31.7731 30.3044 31.9001 30.2367 31.9493 30.1165C32.0791 29.8003 32.2209 29.3303 32.2289 28.7521C32.2369 28.2098 32.1254 27.7643 32.0162 27.4572C31.9733 27.3359 31.8955 27.2305 31.7914 27.1542H31.7909ZM24.5021 36.9941H21.1697V33.6746H24.5021V36.9941Z" fill="#00638E"/>
  <path d="M15.8453 32.2202L17.2099 30.8622C17.1447 30.9356 16.5791 31.5691 15.8453 32.2202Z" fill="#00638E"/>
  <path d="M68.148 20.4641L65.5448 25.1122H62.9415L60.3383 20.4641V27.7154H56.9922V14.7H60.5249L64.2435 21.5795L67.9621 14.7H71.4948V27.7154H68.148V20.4641Z" fill="#00638E"/>
  <path d="M88.8803 24.1826C88.8803 25.4838 88.5857 26.4295 87.9972 27.018C87.4079 27.6066 86.463 27.9012 85.1617 27.9012H78.0155C76.7142 27.9012 75.7686 27.6066 75.1801 27.018C74.5908 26.4295 74.2969 25.4838 74.2969 24.1826V18.2325C74.2969 16.9313 74.5915 15.9856 75.1801 15.3971C75.7686 14.8086 76.7142 14.5139 78.0155 14.5139H85.1617C86.463 14.5139 87.4086 14.8086 87.9972 15.3971C88.5857 15.9856 88.8803 16.9313 88.8803 18.2325V24.1826ZM85.5335 18.2325C85.5335 17.4889 85.1617 17.1172 84.4182 17.1172H78.7591C78.0155 17.1172 77.6437 17.4889 77.6437 18.2325V24.1826C77.6437 24.9262 78.0155 25.298 78.7591 25.298H84.4182C85.1617 25.298 85.5335 24.9262 85.5335 24.1826V18.2325Z" fill="#00638E"/>
  <path d="M102.804 27.7152V19.2794L95.1968 27.7152H91.6641V14.6997H95.0109V23.5763L103.059 14.6997H106.151V27.7152H102.804ZM96.9734 13.7702C95.3621 13.7702 94.5561 12.9649 94.5561 11.3528V10.7952H96.9734V11.2603C96.9734 11.4462 97.0351 11.6012 97.1593 11.7254C97.2828 11.8495 97.4385 11.9113 97.6244 11.9113H100.386C100.572 11.9113 100.727 11.8495 100.851 11.7254C100.975 11.6019 101.037 11.4462 101.037 11.2603V10.7952H103.455V11.3528C103.455 12.9642 102.649 13.7702 101.037 13.7702H96.9734Z" fill="#00638E"/>
  <path d="M59.3302 30.3071H71.4434V40.7194H72.6329V43.3226H55.0781V40.7194H57.7497C58.109 40.3101 58.3787 39.8487 58.5587 39.3344C58.738 38.82 58.8401 38.352 58.8658 37.9302L59.3309 30.3071H59.3302ZM68.0958 40.7194V32.9104H62.3052L62.026 37.5584C61.9885 38.3145 61.8026 39.0772 61.4683 39.8457C61.3316 40.1683 61.1766 40.4593 61.0032 40.7194H68.0958Z" fill="#00638E"/>
  <path d="M88.8803 39.7898C88.8803 41.091 88.5857 42.0367 87.9972 42.6252C87.4079 43.2137 86.463 43.5084 85.1617 43.5084H78.0155C76.7142 43.5084 75.7686 43.2137 75.1801 42.6252C74.5908 42.0367 74.2969 41.091 74.2969 39.7898V33.8397C74.2969 32.5384 74.5915 31.5928 75.1801 31.0043C75.7686 30.4157 76.7142 30.1211 78.0155 30.1211H85.1617C86.463 30.1211 87.4086 30.4157 87.9972 31.0043C88.5857 31.5928 88.8803 32.5384 88.8803 33.8397V39.7898ZM85.5335 33.8397C85.5335 33.0961 85.1617 32.7243 84.4182 32.7243H78.7591C78.0155 32.7243 77.6437 33.0961 77.6437 33.8397V39.7898C77.6437 40.5333 78.0155 40.9051 78.7591 40.9051H84.4182C85.1617 40.9051 85.5335 40.5333 85.5335 39.7898V33.8397Z" fill="#00638E"/>
  <path d="M102.821 36.0713L100.217 40.7194H97.6141L95.0109 36.0713V43.3226H91.6641V30.3071H95.1968L98.9154 37.1867L102.634 30.3071H106.167V43.3226H102.82V36.0713H102.821Z" fill="#00638E"/>
</svg>
