<svg viewBox="0 0 98 96" fill="none" xmlns="http://www.w3.org/2000/svg">
  <path
    d="m59.224 34.346-.573 1.562-2.73-.585-.152-.032a1.572 1.572 0 0 1-.729-.379c-.91-.834-3.998-3.263-9.89-4.11a.443.443 0 0 1-.38-.384c-.03-.253-.081-.623-.163-1.014h-.002c-.124-.578-.318-1.204-.615-1.569h-.002v-.002s1.053-1.659 5.405-1.964c0 0-1.412.694-1.976 2.414.87.17 1.721.386 2.556.644h.002c.817-.286 2.04-.538 3.67-.412 0 0-1.085.468-1.556 1.16a25.97 25.97 0 0 1 3.973 2.017l.007.003a26.18 26.18 0 0 1 3.036 2.196.41.41 0 0 1 .12.456v-.001Z"
    fill="url(#a)"/>
  <path
    d="M43.066 29.134c-.018 1.687-.429 4.347-2.35 7.17 0 0 .49-5.336-3.193-7.299a5.715 5.715 0 0 0-1.36-.512 26.317 26.317 0 0 1 6.11-.715h.176a.602.602 0 0 1 .598.56c.015.232.024.5.019.796Z"
    fill="url(#b)"/>
  <path
    d="M55.032 37.244c-.042.96-.195 2.223-.636 3.491a16.144 16.144 0 0 0-4.86-4.432c-3.58-2.098-5.773-1.551-6.55-1.22.62-.974 1.084-2.064 1.368-2.821.09-.24.33-.388.586-.369 2.985.233 6.462 1.14 9.358 3.644.495.428.764 1.056.735 1.708v-.001Z"
    fill="url(#c)"/>
  <path
    d="M56.53 49.342c.502-2.081.154-4.236-.754-6.238a1.48 1.48 0 0 1-.071-1.037c.321-1.057.67-2.685.531-4.489 5.202 6.581.293 11.763.293 11.763h.001Z"
    fill="url(#d)"/>
  <path
    d="M42.565 26.913a38.728 38.728 0 0 0-3.81.158s1.576-3.137 6.876-3.71c0 0-1.775 1.32-2.43 3.12a.669.669 0 0 1-.636.432Z"
    fill="url(#e)"/>
  <path
    d="M34.667 28.58s1.038-.827 2.705-1.74c.256-.14.45-.37.541-.645.25-.757.915-2.438 2.358-4.283 0 0-2.769 1.109-4.372 2.416a.674.674 0 0 0-.206.294c-.19.528-.751 2.17-1.025 3.957Z"
    fill="url(#f)"/>
  <path
    d="M34.03 29.184c-.454-4.285 0-7.482 0-7.482-2.936 2.653-5.117 7.541-5.117 7.541-.153-.663-.212-2.021-.212-2.021-1.545 2.594-1.818 6.327-1.818 6.327-.424-.521-.787-1.51-.787-1.51-.547 3.34.172 6.208.447 7.125a.292.292 0 0 0 .387.188c1.142-.45 2.14-.653 2.65-.737a.671.671 0 0 0 .506-.39c.709-1.594 1.725-2.798 2.16-3.272a.826.826 0 0 1 .502-.26c.421-.055.776-.09 1.034-.111.299-.025.575-.175.753-.414.764-1.02 1.1-1.669 1.1-1.669 2.03.122 3.635 1.049 3.635 1.049-1.331-3.78-5.24-4.366-5.24-4.366v.002Zm-4.986 4.601-.947 1.274.086-1.51s.8-1.338 1.744-2.334c-.026.073-.404 1.064-.547 1.793-.055.28-.165.547-.335.777h-.001Z"
    fill="url(#g)"/>
  <path
    d="M68.196 69.344c.014-.139.24-2.229-1.346-3.099-1.1-.605-1.755.299-1.905.54a.867.867 0 0 1-.029.049l-.004.007v.002c-.325.561-.67 1.107-1.036 1.639l-.002.002s-.002.007-.004.009c-.099.177-1.444 2.633-1.655 4.993-.184 2.049-.853 2.95-2.487 4.44 0 0 .904-1.576-.058-2.758-.716-.88-1.762-.462-1.826-.433l-.004.002c-.213.16-.43.313-.647.465-.301.21-.576.45-.826.718-.591.635-1.67 1.849-2.384 2.994-.965 1.544-1.672 2.144-3.502 2.83.066-.046 1.279-.915.889-2.166-.154-.493-.532-.702-.872-.787a1.73 1.73 0 0 0-.905.03 26.13 26.13 0 0 1-2.058.508s-2.437.685-3.926 1.79c-1.397 1.037-2.233 1.325-4.099 1.301 0 0 1.406-.371 1.5-1.65.07-.982-.98-1.007-.98-1.007l.01-.002c-.755-.062-1.5-.158-2.235-.284l.004.002s-2.362-.15-3.984.324c-1.522.444-2.328.424-3.914-.184 0 0 1.396.079 1.882-.984.17-.367.087-.65-.053-.847a.953.953 0 0 0-.39-.306 25.904 25.904 0 0 1-3.268-1.796l.026.03s-1.978-.87-3.515-1.06c-1.439-.178-2.109-.486-3.217-1.57.079.046 1.08.617 1.843-.07a.867.867 0 0 0 .31-.686 1.022 1.022 0 0 0-.295-.67 26.424 26.424 0 0 1-2.228-2.696s-1.36-1.333-2.556-1.956c-1.12-.583-1.573-1.04-2.145-2.263 0 0 .759.822 1.627.472.584-.234.42-.845.403-.909l.015.013a25.84 25.84 0 0 1-2.159-12.192c-.004.077-.004.154-.004.23 0 12.955 10.544 23.455 23.548 23.455 13.004 0 22.667-9.649 23.49-21.857a.32.32 0 0 0-.075-.23c-1.232-1.465-2.996-2.562-5.515-2.847 0 0 5.678-5.38.834-10.691.045.021.797.4 1.893.852 1.506.623 3.662 1.392 5.518 1.58.566.057 1.103.062 1.588-.011 0 0 2.95 5.86 1.165 14.553l-.001.014c-.103.758-.403 3.529.334 5.99.722 2.417.394 3.743-.77 6.18v-.003Z"
    fill="url(#h)"/>
  <path d="m64.916 66.834-.004.008v-.001s.004-.004.004-.007Z" fill="url(#i)"/>
  <path
    d="M61.875 55.4v.005c-1.984 10.343-11.111 18.158-22.07 18.158-12.416 0-22.477-10.025-22.477-22.39a22.25 22.25 0 0 1 6.032-15.261c-2.71 3.659-4.328 8.285-4.328 13.315 0 11.848 8.977 21.45 20.05 21.45 4.897 0 9.385-1.877 12.864-4.996v-.002l.011-.01c1.55-1.409 7.175-8.983 1.715-13.302 0 0 2.351-.517 5.124.794 1 .472 2.057 1.18 3.08 2.24Z"
    fill="url(#j)"/>
  <path
    d="M23.36 35.912c-1.927 2.01-4.937 5.719-6.626 11.165a27.652 27.652 0 0 0-1.23 7.464c-1.578-2.994-1.871-6.413-1.871-6.413a9.201 9.201 0 0 0 1.016 1.404c2.042-7.586 8.51-13.438 8.711-13.619v-.001Z"
    fill="url(#k)"/>
  <path d="M72.02 54.882c-.308.43-.643.852-1 1.263.357-.438.69-.858 1-1.263Z"
        fill="url(#l)"/>
  <path
    d="M84.329 54.365c-.171-.928-.629-1.605-.935-1.99C81.87 32.75 71.221 17.498 57.446 14.236c-2.978-.705-8.53-1.424-15.878 1.176a7.092 7.092 0 0 0-3.422-.927 22.556 22.556 0 0 0-2.865 7.73c1.243-.86 3.38-2.078 6.221-2.437 5.91-.743 10.416 2.794 12.446 4.387 5.185 4.071 7.12 9.47 7.833 12.09a.494.494 0 0 1-.388.614l-3.882.736a35.685 35.685 0 0 1 7.084 2.48.487.487 0 0 0 .695-.501l-.373-2.78c-.034-.258.03-.518.184-.728l.412-.569.044-.274c-.625-1.946-2.724-7.63-8.346-11.926-7.547-5.772-14.888-5.047-16.729-4.822 2.465-.508 7.349-1.292 13.868 1.601 5.425 2.406 8.388 6.203 10.077 8.426 8.079 10.62 7.085 23.503 6.594 27.633.357-.438.69-.858 1-1.263l.013-.02c4.781-6.295 3.862-8.976 3.862-8.976-.275-.145-.688-.601-1.112-1.142-.298-4.034-1.933-8.682-5.008-14.125-.922-1.633-3.986-6.65-9.95-10.161-7.965-4.688-13.19-4.22-16.05-4.088 2.154-.52 7.587-1.671 15.178 1.733 7.21 3.237 11.02 9.07 12.44 11.65 11.373 20.643 3.174 35.432 1.99 38.785 5.924-5.181 9.82-9.57 10.578-11.468.59-1.477.367-2.705.367-2.705Z"
    fill="url(#m)"/>
  <path
    d="m54.683 45.004-10.696-7.826-14.21 14.153-.006.009a29.98 29.98 0 0 1-2.332 2.32c-1.073.956-2.358 1.934-3.493 2.35-.075.026-.053.135.026.135h.973l-.002.002h6.059v9.229c.553.288 9.451 4.766 16.237.44 2.975-1.896 4.41-4.763 4.662-5.28.52-1.07 2.498-5.147.638-7.378-.53-.636-1.239-.965-1.856-1.144a.192.192 0 0 1-.087-.318 4.537 4.537 0 0 1 2.237-1.274 4.43 4.43 0 0 1 1.6-.066.486.486 0 0 0 .521-.29 6.38 6.38 0 0 0 .114-4.544 1.091 1.091 0 0 0-.384-.518ZM42.23 61.817h-5.694v-5.672h5.694v5.672Z"
    fill="url(#n)"/>
  <path d="m27.438 53.66 2.332-2.32a29.99 29.99 0 0 1-2.332 2.32Z"
        fill="url(#o)"/>
  <defs>
    <linearGradient id="a" x1="52.703" y1="82.422" x2="52.703" y2="13.579"
                    gradientUnits="userSpaceOnUse">
      <stop stop-color="#219ACD"/>
      <stop offset=".968" stop-color="#20CDC2"/>
    </linearGradient>
    <linearGradient id="b" x1="52.703" y1="82.422" x2="52.703" y2="13.579"
                    gradientUnits="userSpaceOnUse">
      <stop stop-color="#219ACD"/>
      <stop offset=".968" stop-color="#20CDC2"/>
    </linearGradient>
    <linearGradient id="c" x1="52.703" y1="82.422" x2="52.703" y2="13.579"
                    gradientUnits="userSpaceOnUse">
      <stop stop-color="#219ACD"/>
      <stop offset=".968" stop-color="#20CDC2"/>
    </linearGradient>
    <linearGradient id="d" x1="52.703" y1="82.422" x2="52.703" y2="13.579"
                    gradientUnits="userSpaceOnUse">
      <stop stop-color="#219ACD"/>
      <stop offset=".968" stop-color="#20CDC2"/>
    </linearGradient>
    <linearGradient id="e" x1="52.703" y1="82.422" x2="52.703" y2="13.579"
                    gradientUnits="userSpaceOnUse">
      <stop stop-color="#219ACD"/>
      <stop offset=".968" stop-color="#20CDC2"/>
    </linearGradient>
    <linearGradient id="f" x1="52.703" y1="82.422" x2="52.703" y2="13.579"
                    gradientUnits="userSpaceOnUse">
      <stop stop-color="#219ACD"/>
      <stop offset=".968" stop-color="#20CDC2"/>
    </linearGradient>
    <linearGradient id="g" x1="52.703" y1="82.422" x2="52.703" y2="13.579"
                    gradientUnits="userSpaceOnUse">
      <stop stop-color="#219ACD"/>
      <stop offset=".968" stop-color="#20CDC2"/>
    </linearGradient>
    <linearGradient id="h" x1="52.703" y1="82.422" x2="52.703" y2="13.579"
                    gradientUnits="userSpaceOnUse">
      <stop stop-color="#219ACD"/>
      <stop offset=".968" stop-color="#20CDC2"/>
    </linearGradient>
    <linearGradient id="i" x1="52.703" y1="82.422" x2="52.703" y2="13.579"
                    gradientUnits="userSpaceOnUse">
      <stop stop-color="#219ACD"/>
      <stop offset=".968" stop-color="#20CDC2"/>
    </linearGradient>
    <linearGradient id="j" x1="52.703" y1="82.422" x2="52.703" y2="13.579"
                    gradientUnits="userSpaceOnUse">
      <stop stop-color="#219ACD"/>
      <stop offset=".968" stop-color="#20CDC2"/>
    </linearGradient>
    <linearGradient id="k" x1="52.703" y1="82.422" x2="52.703" y2="13.579"
                    gradientUnits="userSpaceOnUse">
      <stop stop-color="#219ACD"/>
      <stop offset=".968" stop-color="#20CDC2"/>
    </linearGradient>
    <linearGradient id="l" x1="52.703" y1="82.422" x2="52.703" y2="13.579"
                    gradientUnits="userSpaceOnUse">
      <stop stop-color="#219ACD"/>
      <stop offset=".968" stop-color="#20CDC2"/>
    </linearGradient>
    <linearGradient id="m" x1="52.703" y1="82.422" x2="52.703" y2="13.579"
                    gradientUnits="userSpaceOnUse">
      <stop stop-color="#219ACD"/>
      <stop offset=".968" stop-color="#20CDC2"/>
    </linearGradient>
    <linearGradient id="n" x1="52.703" y1="82.422" x2="52.703" y2="13.579"
                    gradientUnits="userSpaceOnUse">
      <stop stop-color="#219ACD"/>
      <stop offset=".968" stop-color="#20CDC2"/>
    </linearGradient>
    <linearGradient id="o" x1="52.703" y1="82.422" x2="52.703" y2="13.579"
                    gradientUnits="userSpaceOnUse">
      <stop stop-color="#219ACD"/>
      <stop offset=".968" stop-color="#20CDC2"/>
    </linearGradient>
  </defs>
</svg>