<svg width="64" height="64" viewBox="0 0 64 64" fill="none"
     xmlns="http://www.w3.org/2000/svg">
  <path
    d="M43.5 30H41M41 30H26C23.2386 30 21 32.2386 21 35V51C21 51.5523 20.5523 52 20 52H8.5C7.94772 52 7.5 51.5523 7.5 51V27.5C7.5 25.567 9.067 24 11 24V24M41 30V30C41 31.6569 42.3431 33 44 33H50C51.6569 33 53 31.6569 53 30V30M50 30H55C56.6569 30 58 28.6569 58 27V27C58 25.3431 56.6569 24 55 24H20M20 24V20M20 24H11M18 20H18.6667C20.5076 20 22 18.5076 22 16.6667V16.6667C22 15.7462 22.7462 15 23.6667 15H37C38.1046 15 39 14.1046 39 13V13C39 11.8954 38.1046 11 37 11H12C9.79086 11 8 12.7909 8 15V17C8 18.6569 9.34315 20 11 20V20M13 20H11M11 20V24"
    stroke="currentColor" stroke-width="2" stroke-linecap="round"/>
  <path d="M47.5 36V54M51 36L56 54M44 36L39 54" stroke="currentColor"
        stroke-width="2" stroke-dasharray="2 5"/>
</svg>
