<svg viewBox="0 0 64 64" fill="none" xmlns="http://www.w3.org/2000/svg">
  <circle cx="16" cy="47" r="5" stroke="currentColor" stroke-width="2"/>
  <circle cx="48" cy="47" r="5" stroke="currentColor" stroke-width="2"/>
  <path
    d="M11 47H6V15a1 1 0 0 1 1-1h31a1 1 0 0 1 1 1v32M21 47h22m10 0h4a1 1 0 0 0 1-1V36a1 1 0 0 0-1-1h-1L45.3 21.382a1 1 0 0 0-.786-.382H39"
    stroke="currentColor" stroke-width="2"/>
  <path d="M42 34h7l-5.7-7.6a1 1 0 0 0-.8-.4H39m14 9h4" stroke="currentColor"
        stroke-width="2"/>
</svg>