<svg viewBox="0 0 64 64" fill="none" xmlns="http://www.w3.org/2000/svg">
  <path
    d="m14 35 1.658.663a9 9 0 0 0 6.685 0L24 35M40 35l1.657.663a9 9 0 0 0 6.686 0L50 35M27 41l1.657.663a9 9 0 0 0 6.686 0L37 41M15 9v22l.4.3a6 6 0 0 0 7.2 0l.4-.3V9m-8 0 .464.464a5 5 0 0 0 7.071 0L23 9m-8 0 .464-.464a5 5 0 0 1 7.071 0L23 9M41 9v22l.4.3a6 6 0 0 0 7.2 0l.4-.3V9m-8 0 .465.464a5 5 0 0 0 7.07 0L49 9m-8 0 .465-.464a5 5 0 0 1 7.07 0L49 9M28 15v22l.4.3a6 6 0 0 0 7.2 0l.4-.3V15m-8 0 .465.464a5 5 0 0 0 7.07 0L36 15m-8 0 .465-.464a5 5 0 0 1 7.07 0L36 15"
    stroke="currentColor" stroke-width="2"/>
  <path d="M56 37v9L32 57 8 46v-9m48 0L32 48 8 37m48 0-4-2M8 37l4-2"
        stroke="currentColor" stroke-width="2"/>
</svg>