<svg viewBox="0 0 64 64" fill="none" xmlns="http://www.w3.org/2000/svg">
  <rect x="5.5" y="54" width="12" height="4" rx="1" stroke="currentColor"
        stroke-width="2"/>
  <rect x="5.5" y="43" width="12" height="4" rx="1" stroke="currentColor"
        stroke-width="2"/>
  <rect x="24" y="26" width="4" height="12" rx="1" stroke="currentColor"
        stroke-width="2"/>
  <path d="M7 43v-6a9 9 0 0 1 9-9h8M16 43v-5a2 2 0 0 1 2-2h6"
        stroke="currentColor"
        stroke-width="2"/>
  <rect x="58.5" y="10" width="12" height="4" rx="1"
        transform="rotate(180 58.5 10)" stroke="currentColor" stroke-width="2"/>
  <rect x="58.5" y="21" width="12" height="4" rx="1"
        transform="rotate(180 58.5 21)" stroke="currentColor" stroke-width="2"/>
  <rect x="40" y="38" width="4" height="12" rx="1" transform="rotate(180 40 38)"
        stroke="currentColor" stroke-width="2"/>
  <path
    d="M57 21v6a9 9 0 0 1-9 9h-8M48 21v5a2 2 0 0 1-2 2h-6M28 28h8m-8 9h8M57 10v7m-9-7v7M16 47v7m-9-7v7"
    stroke="currentColor" stroke-width="2"/>
</svg>