<svg viewBox="0 0 64 64" fill="none" xmlns="http://www.w3.org/2000/svg">
  <path d="M49 51v-.5a4.5 4.5 0 1 1 9 0v.5a5 5 0 0 1-5 5H6V15h19m14 0h10"
        stroke="currentColor" stroke-width="2"/>
  <path d="M58 52V13.5a4.5 4.5 0 1 0-9 0V52" stroke="currentColor"
        stroke-width="2"/>
  <circle cx="32" cy="14" r="4" stroke="currentColor" stroke-width="2"/>
  <path
    d="M30 10V6a2 2 0 1 1 4 0v4M32 18l8 25 4 4.5v-6l-8.5-26M20 41.5l8.5-26M32 18l-8 25M32 44c-6.333.167-20.4-2.8-26-16"
    stroke="currentColor" stroke-width="2"/>
</svg>