<svg width="16" height="16" viewBox="0 0 16 16" fill="none" xmlns="http://www.w3.org/2000/svg">
  <path d="M1.60156 2.4001C1.60156 1.95827 1.95973 1.6001 2.40156 1.6001H4.12386C4.51493 1.6001 4.84868 1.88283 4.91298 2.26858L5.50443 5.81728C5.56216 6.1637 5.38721 6.50727 5.07308 6.66434L3.83457 7.28359C4.72761 9.50275 6.49891 11.2741 8.71807 12.1671L9.33732 10.9286C9.49438 10.6145 9.83796 10.4395 10.1844 10.4972L13.7331 11.0887C14.1188 11.153 14.4016 11.4867 14.4016 11.8778V13.6001C14.4016 14.0419 14.0434 14.4001 13.6016 14.4001H12.0016C6.2578 14.4001 1.60156 9.74386 1.60156 4.0001V2.4001Z" fill="#20B6CD"/>
</svg>
