<svg viewBox="0 0 48 48" fill="none" xmlns="http://www.w3.org/2000/svg">
  <rect x="1" y="1" width="46" height="46" rx="7" fill="#fff"
        fill-opacity=".2"/>
  <rect x="1" y="1" width="46" height="46" rx="7"
        stroke="url(#paint0_linear_1456_18033)" stroke-width="2"/>
  <path fill-rule="evenodd" clip-rule="evenodd"
        d="M17.293 17.293a1 1 0 0 1 1.414 0L24 22.586l5.293-5.293a1 1 0 0 1 1.414 1.414L25.414 24l5.293 5.293a1 1 0 0 1-1.414 1.414L24 25.414l-5.293 5.293a1 1 0 0 1-1.414-1.414L22.586 24l-5.293-5.293a1 1 0 0 1 0-1.414Z"
        fill="#20CDC2"/>
  <defs>
    <linearGradient id="paint0_linear_1456_18033" x1="24" y1="0" x2="24" y2="48"
                    gradientUnits="userSpaceOnUse">
      <stop stop-color="#20CDC2"/>
      <stop offset="1" stop-color="#20B6CD"/>
    </linearGradient>
  </defs>
</svg>