<svg viewBox="0 0 40 40" fill="none" xmlns="http://www.w3.org/2000/svg">
  <g clip-path="url(#clip0_1506_14795)">
    <mask id="mask0_1506_14795" style="mask-type:luminance"
          maskUnits="userSpaceOnUse" x="8" y="4" width="24" height="33">
      <path
        d="M22.915 4.397H10.52a2.2 2.2 0 0 0-2.188 2.2v27.87a2.2 2.2 0 0 0 2.188 2.2h18.958a2.2 2.2 0 0 0 2.187-2.2V13.198l-8.75-8.8Z"
        fill="#fff"/>
    </mask>
    <g mask="url(#mask0_1506_14795)">
      <path
        d="M22.915 4.397H10.52a2.2 2.2 0 0 0-2.188 2.2v27.87a2.2 2.2 0 0 0 2.188 2.2h18.958a2.2 2.2 0 0 0 2.187-2.2V13.198l-5.104-3.667-3.646-5.134Z"
        fill="#4285F4"/>
    </g>
    <mask id="mask1_1506_14795" style="mask-type:luminance"
          maskUnits="userSpaceOnUse" x="8" y="4" width="24" height="33">
      <path
        d="M22.915 4.397H10.52a2.2 2.2 0 0 0-2.188 2.2v27.87a2.2 2.2 0 0 0 2.188 2.2h18.958a2.2 2.2 0 0 0 2.187-2.2V13.198l-8.75-8.8Z"
        fill="#fff"/>
    </mask>
    <g mask="url(#mask1_1506_14795)">
      <path d="m23.555 12.554 8.11 8.156v-7.512l-8.11-.644Z"
            fill="url(#paint0_linear_1506_14795)"/>
    </g>
    <mask id="mask2_1506_14795" style="mask-type:luminance"
          maskUnits="userSpaceOnUse" x="8" y="4" width="24" height="33">
      <path
        d="M22.915 4.397H10.52a2.2 2.2 0 0 0-2.188 2.2v27.87a2.2 2.2 0 0 0 2.188 2.2h18.958a2.2 2.2 0 0 0 2.187-2.2V13.198l-8.75-8.8Z"
        fill="#fff"/>
    </mask>
    <g mask="url(#mask2_1506_14795)">
      <path
        d="M14.164 27.866h11.667v-1.467H14.164v1.467Zm0 2.934h8.75v-1.467h-8.75V30.8Zm0-10.268v1.467h11.667v-1.467H14.164Zm0 4.4h11.667v-1.466H14.164v1.466Z"
        fill="#F1F1F1"/>
    </g>
    <mask id="mask3_1506_14795" style="mask-type:luminance"
          maskUnits="userSpaceOnUse" x="8" y="4" width="24" height="33">
      <path
        d="M22.915 4.397H10.52a2.2 2.2 0 0 0-2.188 2.2v27.87a2.2 2.2 0 0 0 2.188 2.2h18.958a2.2 2.2 0 0 0 2.187-2.2V13.198l-8.75-8.8Z"
        fill="#fff"/>
    </mask>
    <g mask="url(#mask3_1506_14795)">
      <path d="M22.914 4.397v6.6c0 1.216.979 2.201 2.188 2.201h6.562l-8.75-8.8Z"
            fill="#A1C2FA"/>
    </g>
    <mask id="mask4_1506_14795" style="mask-type:luminance"
          maskUnits="userSpaceOnUse" x="8" y="4" width="24" height="33">
      <path
        d="M22.915 4.397H10.52a2.2 2.2 0 0 0-2.188 2.2v27.87a2.2 2.2 0 0 0 2.188 2.2h18.958a2.2 2.2 0 0 0 2.187-2.2V13.198l-8.75-8.8Z"
        fill="#fff"/>
    </mask>
    <g mask="url(#mask4_1506_14795)">
      <path
        d="M10.52 4.397a2.2 2.2 0 0 0-2.188 2.2v.184a2.2 2.2 0 0 1 2.188-2.2h12.395v-.184H10.52Z"
        fill="#fff" fill-opacity=".2"/>
    </g>
    <mask id="mask5_1506_14795" style="mask-type:luminance"
          maskUnits="userSpaceOnUse" x="8" y="4" width="24" height="33">
      <path
        d="M22.915 4.397H10.52a2.2 2.2 0 0 0-2.188 2.2v27.87a2.2 2.2 0 0 0 2.188 2.2h18.958a2.2 2.2 0 0 0 2.187-2.2V13.198l-8.75-8.8Z"
        fill="#fff"/>
    </mask>
    <g mask="url(#mask5_1506_14795)">
      <path
        d="M29.478 36.483H10.519a2.2 2.2 0 0 1-2.187-2.2v.184a2.2 2.2 0 0 0 2.188 2.2h18.958a2.2 2.2 0 0 0 2.187-2.2v-.184a2.2 2.2 0 0 1-2.187 2.2Z"
        fill="#1A237E" fill-opacity=".2"/>
    </g>
    <mask id="mask6_1506_14795" style="mask-type:luminance"
          maskUnits="userSpaceOnUse" x="8" y="4" width="24" height="33">
      <path
        d="M22.915 4.397H10.52a2.2 2.2 0 0 0-2.188 2.2v27.87a2.2 2.2 0 0 0 2.188 2.2h18.958a2.2 2.2 0 0 0 2.187-2.2V13.198l-8.75-8.8Z"
        fill="#fff"/>
    </mask>
    <g mask="url(#mask6_1506_14795)">
      <path
        d="M25.102 13.198a2.193 2.193 0 0 1-2.188-2.2v.183c0 1.216.979 2.2 2.188 2.2h6.562v-.183h-6.562Z"
        fill="#1A237E" fill-opacity=".1"/>
    </g>
    <path
      d="M22.915 4.397H10.52a2.2 2.2 0 0 0-2.188 2.2v27.87a2.2 2.2 0 0 0 2.188 2.2h18.958a2.2 2.2 0 0 0 2.187-2.2V13.198l-8.75-8.8Z"
      fill="url(#paint1_radial_1506_14795)"/>
  </g>
  <defs>
    <radialGradient id="paint1_radial_1506_14795" cx="0" cy="0" r="1"
                    gradientUnits="userSpaceOnUse"
                    gradientTransform="translate(82.253 67.808) scale(3762.47)">
      <stop stop-color="#fff" stop-opacity=".1"/>
      <stop offset="1" stop-color="#fff" stop-opacity="0"/>
    </radialGradient>
    <linearGradient id="paint0_linear_1506_14795" x1="429.106" y1="82.577"
                    x2="429.106" y2="828.206" gradientUnits="userSpaceOnUse">
      <stop stop-color="#1A237E" stop-opacity=".2"/>
      <stop offset="1" stop-color="#1A237E" stop-opacity=".02"/>
    </linearGradient>
    <clipPath id="clip0_1506_14795">
      <path fill="#fff" transform="translate(8.332 4.397)"
            d="M0 0h23.333v32.27H0z"/>
    </clipPath>
  </defs>
</svg>